<?xml version="1.0" standalone="no"?>
<!DOCTYPE svg PUBLIC "-//W3C//DTD SVG 20010904//EN"
 "http://www.w3.org/TR/2001/REC-SVG-20010904/DTD/svg10.dtd">
<svg version="1.0" xmlns="http://www.w3.org/2000/svg"
 width="278.000000pt" height="181.000000pt" viewBox="0 0 278.000000 181.000000"
 preserveAspectRatio="xMidYMid meet">

<g transform="translate(0.000000,181.000000) scale(0.100000,-0.100000)"
fill="#000000" stroke="none">
<path d="M1193 1785 c-34 -7 -100 -29 -147 -48 -211 -86 -378 -247 -476 -461
-65 -140 -75 -191 -74 -371 0 -189 11 -240 84 -392 168 -346 506 -534 903
-501 307 25 582 218 718 503 73 154 84 202 83 395 0 153 -2 171 -28 250 -53
158 -123 276 -231 384 -119 119 -282 207 -445 242 -82 17 -305 17 -387 -1z
m397 -106 c352 -90 600 -410 600 -774 0 -476 -424 -852 -893 -794 -387 48
-684 363 -704 748 -12 228 59 424 216 593 196 213 496 300 781 227z"/>
<path d="M1150 1487 c-30 -18 -56 -40 -58 -48 -3 -18 160 -300 182 -314 12 -8
29 -3 71 20 30 16 57 37 60 46 6 17 -156 307 -178 321 -17 11 -17 11 -77 -25z"/>
<path d="M1008 1367 c-67 -50 -80 -85 -74 -189 12 -215 176 -544 367 -737 145
-147 233 -176 351 -115 l27 14 -83 142 -82 143 -47 -3 c-37 -3 -57 2 -92 23
-96 56 -185 208 -192 330 -4 62 -2 74 20 107 l25 36 -81 141 c-45 78 -84 141
-88 141 -4 0 -27 -15 -51 -33z"/>
<path d="M1599 727 c-56 -34 -70 -49 -64 -66 18 -48 172 -302 186 -306 27 -9
129 55 129 81 0 12 -147 271 -170 299 -16 20 -37 18 -81 -8z"/>
</g>
</svg>
