<?xml version="1.0" standalone="no"?>
<!DOCTYPE svg PUBLIC "-//W3C//DTD SVG 20010904//EN"
 "http://www.w3.org/TR/2001/REC-SVG-20010904/DTD/svg10.dtd">
<svg version="1.0" xmlns="http://www.w3.org/2000/svg"
 width="225.000000pt" height="225.000000pt" viewBox="0 0 225.000000 225.000000"
 preserveAspectRatio="xMidYMid meet">

<g transform="translate(0.000000,225.000000) scale(0.100000,-0.100000)"
fill="#000000" stroke="none">
<path d="M1006 1954 c-212 -46 -389 -223 -427 -429 -15 -80 -5 -207 21 -274
55 -141 121 -243 348 -544 l168 -222 189 253 c210 279 289 400 336 512 124
293 -73 636 -404 704 -92 19 -140 19 -231 0z m195 -360 c75 -22 140 -88 165
-167 15 -50 16 -66 6 -115 -15 -72 -54 -128 -117 -167 -43 -27 -57 -30 -130
-30 -73 0 -87 3 -130 30 -63 39 -102 95 -117 167 -10 49 -9 65 6 114 24 77 83
139 156 164 68 24 92 24 161 4z"/>
<path d="M915 636 c-174 -55 -232 -162 -134 -251 51 -46 107 -70 210 -90 103
-19 161 -19 268 1 167 31 278 116 257 199 -15 59 -114 129 -212 150 -30 6 -34
3 -98 -85 -37 -50 -69 -97 -72 -105 -4 -8 -10 -15 -14 -15 -4 0 -42 47 -84
105 -43 58 -78 105 -79 104 -1 0 -20 -6 -42 -13z"/>
</g>
</svg>
