<?xml version="1.0" standalone="no"?>
<!DOCTYPE svg PUBLIC "-//W3C//DTD SVG 20010904//EN"
 "http://www.w3.org/TR/2001/REC-SVG-20010904/DTD/svg10.dtd">
<svg version="1.0" xmlns="http://www.w3.org/2000/svg"
 width="301.000000pt" height="167.000000pt" viewBox="0 0 301.000000 167.000000"
 preserveAspectRatio="xMidYMid meet">

<g transform="translate(0.000000,167.000000) scale(0.100000,-0.100000)"
fill="#000000" stroke="none">
<path d="M1405 1561 c-163 -26 -298 -93 -411 -206 -124 -123 -216 -301 -196
-378 9 -32 9 -32 21 23 8 30 31 93 52 139 37 80 40 83 66 77 16 -3 70 -13 121
-23 l92 -18 -6 -50 c-3 -27 -7 -60 -10 -72 -3 -15 0 -23 10 -23 16 0 26 30 26
80 1 59 6 62 106 50 49 -5 117 -10 152 -10 l62 0 0 -60 c0 -47 3 -60 15 -60
12 0 15 13 15 58 l0 59 133 6 c72 4 142 10 153 13 20 5 22 1 29 -65 5 -51 11
-71 21 -71 11 0 14 16 12 72 l-3 72 85 17 c47 10 99 20 116 24 31 7 32 5 66
-62 19 -38 43 -100 53 -138 18 -64 19 -67 27 -39 5 19 2 46 -9 79 -76 235
-267 419 -502 484 -84 23 -222 34 -296 22z m85 -201 l0 -180 -57 0 c-55 0
-244 17 -249 23 -4 4 20 112 46 205 19 71 27 85 49 94 29 11 153 36 189 37
l22 1 0 -180z m141 166 c106 -19 115 -26 138 -100 29 -95 53 -218 44 -227 -5
-5 -73 -12 -151 -15 l-142 -7 0 181 c0 208 -12 190 111 168z m-442 -161 c-15
-60 -28 -120 -29 -132 0 -28 -15 -29 -132 -6 -49 9 -88 21 -88 27 0 20 146
151 210 188 35 21 65 37 66 35 1 -1 -11 -51 -27 -112z m674 74 c66 -39 207
-166 207 -186 0 -8 -209 -57 -216 -50 -2 1 -13 47 -24 101 -12 53 -28 115 -35
137 -8 21 -11 39 -8 39 4 0 38 -19 76 -41z"/>
<path d="M670 968 c0 -2 24 -82 53 -178 53 -175 53 -175 84 -178 30 -3 31 -1
61 80 17 46 35 104 42 128 6 25 14 54 17 64 4 14 13 -4 28 -55 66 -224 64
-219 99 -219 l32 0 53 168 c29 92 56 173 58 180 3 8 -6 12 -26 12 -37 0 -33 9
-80 -166 l-37 -134 -45 148 c-44 146 -44 147 -73 147 -28 0 -31 -4 -57 -85
-15 -47 -36 -114 -46 -150 l-19 -64 -39 152 -39 152 -33 0 c-18 0 -33 -1 -33
-2z"/>
<path d="M1240 968 c0 -2 24 -82 53 -178 52 -170 54 -175 82 -178 15 -2 32 2
36 10 10 15 63 174 80 238 l11 45 22 -75 c67 -225 65 -220 99 -220 l32 0 54
168 c29 92 56 173 58 180 3 8 -6 12 -26 12 -37 0 -33 9 -80 -166 l-37 -134
-45 148 c-44 146 -44 147 -73 147 -28 0 -31 -4 -57 -85 -15 -47 -36 -114 -46
-150 l-19 -65 -39 153 -40 152 -32 0 c-18 0 -33 -1 -33 -2z"/>
<path d="M1810 968 c0 -2 24 -82 53 -178 53 -174 54 -175 84 -178 29 -3 31 0
57 69 15 40 36 104 46 142 11 39 21 72 23 74 3 2 7 -10 11 -27 3 -17 22 -82
42 -145 36 -115 36 -115 67 -115 l32 0 54 168 c29 92 56 173 58 180 7 19 -56
16 -64 -4 -3 -8 -22 -76 -42 -150 l-37 -134 -45 148 c-39 132 -46 147 -68 150
-13 2 -27 0 -31 -5 -5 -4 -29 -73 -53 -152 -27 -86 -47 -136 -50 -125 -3 10
-20 79 -38 152 l-33 132 -33 0 c-18 0 -33 -1 -33 -2z"/>
<path d="M1497 641 c-4 -18 -7 -48 -7 -66 l0 -32 -97 -7 c-54 -3 -121 -9 -150
-12 l-51 -6 -7 56 c-4 31 -11 58 -15 61 -12 8 -20 -35 -14 -79 l6 -41 -114
-22 c-62 -12 -121 -25 -129 -28 -11 -4 -20 3 -29 25 -7 17 -21 35 -31 41 -32
17 -23 -11 31 -93 160 -243 449 -372 729 -324 169 30 283 89 406 211 83 83
162 205 132 205 -8 0 -25 -16 -36 -36 -16 -27 -26 -34 -39 -29 -9 3 -68 16
-130 28 l-112 22 6 45 c3 25 1 56 -4 70 -8 21 -10 17 -20 -39 -6 -35 -13 -66
-16 -68 -2 -2 -57 1 -122 6 -66 6 -129 11 -141 11 -20 0 -23 5 -24 43 -1 23
-4 53 -8 67 -7 24 -7 24 -14 -9z m-7 -321 c0 -115 -4 -190 -10 -190 -24 0
-158 23 -168 28 -9 7 -93 244 -106 304 -6 25 -4 27 36 32 53 7 116 12 191 14
l57 2 0 -190z m233 174 c42 -3 77 -9 77 -12 0 -20 -34 -129 -67 -220 -42 -114
-38 -111 -160 -127 l-53 -7 0 192 0 192 63 -6 c34 -3 97 -8 140 -12z m-503
-169 c23 -72 44 -136 47 -143 7 -17 -50 6 -127 51 -55 33 -210 176 -210 194 0
11 90 35 185 51 41 7 51 5 56 -7 4 -9 26 -74 49 -146z m751 135 c56 -11 104
-22 107 -25 9 -8 -71 -97 -134 -148 -53 -44 -193 -121 -202 -112 -2 2 12 52
32 112 19 59 40 127 46 151 13 50 11 49 151 22z"/>
</g>
</svg>
